<svg xmlns="http://www.w3.org/2000/svg" xml:space="preserve" viewBox="0 0 24 24">
  <path d="M8.746 18.585c-3.279 0-6.23-1.264-8.536-3.656a.75.75 0 0 1 .052-1.09l1.777-1.523-1.777-1.524A.75.75 0 0 1 .21 9.703C2.517 7.31 5.47 6.044 8.749 6.044c3.009 0 6.204 1.076 9.255 3.115l3.987-2.68a.778.778 0 0 1 .183-.09 1.39 1.39 0 0 1 1.056.074c.67.334.953 1.123.651 1.804l-1.339 4.05 1.339 4.047a1.387 1.387 0 0 1-1.271 1.949c-.148 0-.295-.024-.436-.07a.696.696 0 0 1-.183-.092l-3.986-2.68c-3.052 2.036-6.247 3.112-9.256 3.113l-.003.001zm-6.881-4.144a10.446 10.446 0 0 0 6.979 2.635h.001c2.828 0 5.763-1.052 8.725-3.125a.742.742 0 0 1 .849-.008l3.961 2.665-1.342-4.056a.744.744 0 0 1 0-.47l1.342-4.058-3.962 2.664a.75.75 0 0 1-.848-.009c-2.961-2.074-5.896-3.126-8.723-3.126-2.605 0-5.068.933-6.982 2.637l1.815 1.556a.75.75 0 0 1 0 1.14z"/>
  <path d="M6.75 11.441a.796.796 0 0 1-.13-.01 1.126 1.126 0 0 1-.983-.983.717.717 0 0 1 0-.262c.06-.513.47-.922.983-.983a.796.796 0 0 1 .26 0c.513.061.923.47.983.983a.717.717 0 0 1 0 .262c-.06.513-.47.922-.983.982a.796.796 0 0 1-.13.011z"/>
</svg>
