<svg xmlns="http://www.w3.org/2000/svg" version="1.1" xmlns:xlink="http://www.w3.org/1999/xlink" xmlns:svgjs="http://svgjs.com/svgjs" viewBox="0 0 24 24" width="24" height="24"><g transform="matrix(1,0,0,1,0,0)"><path d="M8.25,5.25h10.5a4.5,4.5,0,0,1,0,9h-1.5c-1.5,0-1.5.75-1.5.75v.1" fill="none" stroke-linecap="round" stroke-linejoin="round" stroke-width="1.5"></path><path d="M18,9.75H8.25c-2.485,0-4.5-1.265-4.5-3.75s2.015-3.75,4.5-3.75H16.5a3.25,3.25,0,0,0,3-1.5s2.25,4.5-1.5,4.5" fill="none" stroke-linecap="round" stroke-linejoin="round" stroke-width="1.5"></path><path d="M15,14.7c1.681.72,2.627,2.168,2.249,3.3-.75,2.25-2.25,5.25-4.5,5.25S9,20.25,8.25,18c-.378-1.133.569-2.581,2.25-3.3" fill="none" stroke-linecap="round" stroke-linejoin="round" stroke-width="1.5"></path><path d="M13.5,9.75A3.543,3.543,0,0,0,9.75,13.5v1.6" fill="none" stroke-linecap="round" stroke-linejoin="round" stroke-width="1.5"></path><path d="M10.875,17.25a.375.375,0,0,1,.375.375" fill="none" stroke-linecap="round" stroke-linejoin="round" stroke-width="1.5"></path><path d="M10.5,17.625a.375.375,0,0,1,.375-.375" fill="none" stroke-linecap="round" stroke-linejoin="round" stroke-width="1.5"></path><path d="M10.875,18a.375.375,0,0,1-.375-.375" fill="none" stroke-linecap="round" stroke-linejoin="round" stroke-width="1.5"></path><path d="M11.25,17.625a.375.375,0,0,1-.375.375" fill="none" stroke-linecap="round" stroke-linejoin="round" stroke-width="1.5"></path><path d="M14.625,17.25a.375.375,0,0,1,.375.375" fill="none" stroke-linecap="round" stroke-linejoin="round" stroke-width="1.5"></path><path d="M14.25,17.625a.375.375,0,0,1,.375-.375" fill="none" stroke-linecap="round" stroke-linejoin="round" stroke-width="1.5"></path><path d="M14.625,18a.375.375,0,0,1-.375-.375" fill="none" stroke-linecap="round" stroke-linejoin="round" stroke-width="1.5"></path><path d="M15,17.625a.375.375,0,0,1-.375.375" fill="none" stroke-linecap="round" stroke-linejoin="round" stroke-width="1.5"></path></g></svg>
