<svg xmlns="http://www.w3.org/2000/svg" version="1.1" xmlns:xlink="http://www.w3.org/1999/xlink" xmlns:svgjs="http://svgjs.com/svgjs" viewBox="0 0 24 24" width="24" height="24"><g transform="matrix(1,0,0,1,0,0)"><path d="M22.5,11.25A5.24,5.24,0,0,0,19.45,6.5,2.954,2.954,0,0,0,16.5,3c-.063,0-.122.015-.185.019a5.237,5.237,0,0,0-8.63,0C7.622,3.015,7.563,3,7.5,3A2.954,2.954,0,0,0,4.55,6.5a5.239,5.239,0,0,0,1.106,9.885A4.082,4.082,0,0,0,12,17.782a4.082,4.082,0,0,0,6.344-1.4A5.248,5.248,0,0,0,22.5,11.25Z" fill="none" stroke-linecap="round" stroke-linejoin="round" stroke-width="1.5"></path><path d="M12 8.25L12 23.25" fill="none" stroke-linecap="round" stroke-linejoin="round" stroke-width="1.5"></path><path d="M12,15q4.5,0,4.5-4.5" fill="none" stroke-linecap="round" stroke-linejoin="round" stroke-width="1.5"></path><path d="M12,12A3.543,3.543,0,0,1,8.25,8.25" fill="none" stroke-linecap="round" stroke-linejoin="round" stroke-width="1.5"></path></g></svg>
