<svg xmlns="http://www.w3.org/2000/svg" version="1.1" xmlns:xlink="http://www.w3.org/1999/xlink" xmlns:svgjs="http://svgjs.com/svgjs" viewBox="0 0 16 16" width="16" height="16"><g transform="matrix(1.6,0,0,1.6,0,0)"><path d="M9.8,6.661,8.327,1.628A3.173,3.173,0,0,0,7.435.248a1.012,1.012,0,0,0-1.676.765V3.041a.759.759,0,0,1-1.518,0V1.013A1.013,1.013,0,0,0,2.565.248a3.173,3.173,0,0,0-.892,1.38L.2,6.661a4.669,4.669,0,0,0-.133.808A2.522,2.522,0,0,0,4.78,8.724a.254.254,0,0,1,.44,0A2.522,2.522,0,0,0,9.935,7.469,4.669,4.669,0,0,0,9.8,6.661ZM2.6,8.735A1.266,1.266,0,1,1,3.861,7.469,1.267,1.267,0,0,1,2.6,8.735Zm4.808,0A1.266,1.266,0,1,1,8.669,7.469,1.267,1.267,0,0,1,7.4,8.735Z" stroke="none" stroke-linecap="round" stroke-linejoin="round" stroke-width="0"></path></g></svg>
