<?xml version="1.0" encoding="UTF-8"?>
<svg width="24px" height="24px" viewBox="0 0 24 24" version="1.1" xmlns="http://www.w3.org/2000/svg" xmlns:xlink="http://www.w3.org/1999/xlink">
    <title>Icons/Großgruppen/Regular/alle</title>
    <defs>
        <path d="M23.1936442,4.42581588 C23.6627534,4.83484843 23.9494539,5.41068834 23.9962293,6.02476009 L24.0030069,6.21 L24.0030069,17.4286739 C24.0035195,18.6082822 23.1294693,19.6054878 21.9556632,19.7601285 C18.8333043,20.1531389 15.8924081,21.4449282 13.4666552,23.4978587 C13.0615854,23.8131325 12.5801164,23.9800421 12.0916579,23.9965618 L12,23.997 L12,23.997 C11.4753419,23.9938004 10.9556267,23.8214554 10.515401,23.4784193 C8.11282145,21.4444424 5.17085828,20.152622 2.04303132,19.7595739 C0.926687529,19.6124914 0.0795473194,18.6971919 0.00529456518,17.5886201 L-1.68923207e-06,17.429 L-1.68923207e-06,6.21076636 C-0.00069923687,5.52690095 0.295155403,4.87632892 0.811016449,4.42737519 C1.32687794,3.97842108 2.01206032,3.77519752 2.69444089,3.87102784 C3.105703,3.931689 3.50937838,4.00534479 3.90840294,4.09213528 C4.31315295,4.18017109 4.56990054,4.57965293 4.48186472,4.98440294 C4.39382891,5.38915295 3.99434707,5.64590054 3.58959706,5.55786472 C3.22358262,5.47825416 2.8532325,5.41067899 2.48071655,5.35571459 C2.23374954,5.32103832 1.98387998,5.39514907 1.79575769,5.55887186 C1.63898905,5.69530756 1.53793637,5.88280286 1.50875452,6.08627798 L1.49999831,6.21 L1.49999831,17.4293316 C1.49981046,17.8559997 1.81595677,18.2166927 2.23450768,18.271852 C5.5552923,18.689133 8.68835723,20.0370779 11.251069,22.1394419 L11.25,12.75 C11.25,12.3357864 11.5857864,12 12,12 C12.3796958,12 12.693491,12.2821539 12.7431534,12.6482294 L12.75,12.75 L12.7499971,22.1442454 L12.866899,22.0484738 C15.4247359,19.9914481 18.5056721,18.6825427 21.7640313,18.2724261 C22.1517926,18.2213371 22.4497587,17.913996 22.496584,17.5342301 L22.5030067,17.429 L22.5030098,6.20784604 C22.5037269,5.95817027 22.3960336,5.72047911 22.2078516,5.55639671 C22.0196702,5.39231481 21.7695308,5.31799803 21.5268356,5.35206119 C21.1443845,5.40815402 20.7733572,5.47593174 20.4137387,5.55535278 C20.0092714,5.64467859 19.608973,5.38920596 19.5196472,4.98473869 C19.4303214,4.58027142 19.685794,4.17997303 20.0902613,4.09064722 C20.4853095,4.00340159 20.8916155,3.92917931 21.3137138,3.86728579 C21.9916983,3.77208847 22.6776205,3.97587699 23.1936442,4.42581588 Z M9.68920269,0.962182078 C12.4215871,-0.344444718 15.6110276,-0.324085778 18.3333395,1.03164533 C18.757588,1.24292417 18.8819402,1.78984536 18.5907529,2.16379119 C18.2893816,2.5508154 18.0519418,3.13896543 17.7004193,4.29335633 L17.7004193,4.29335633 L17.3211886,5.53305834 C16.3620554,8.53075521 15.146137,10.0823425 12.668904,10.3087352 C11.467416,10.4212099 10.4330817,9.86651339 9.57597824,8.91531448 C9.41508152,8.73675403 9.27226493,8.55871027 9.14746857,8.38773557 C8.86053326,8.87588684 8.59088746,9.4241364 8.34106129,10.0342163 C8.18409295,10.4175358 7.74610314,10.6010296 7.36278367,10.4440613 C6.97946421,10.287093 6.79597036,9.84910314 6.95293871,9.46578367 C7.33048126,8.54381808 7.75436928,7.73866917 8.21814181,7.04335383 C6.67102561,4.79900809 6.98430495,2.589795 9.17350461,1.23834873 L9.17350461,1.23834873 L9.36391968,1.1256653 Z M16.8204944,2.01037405 C14.6265694,1.20441388 12.1782553,1.3505112 10.0804677,2.44317675 L10.0804677,2.44317675 L9.94360405,2.52583574 C8.6777607,3.31657707 8.40707105,4.4287484 9.19253602,5.79229378 C10.2862193,4.60063238 11.3608639,4.07604938 12.1776525,3.97470708 C12.5887142,3.92370499 12.9632908,4.21559092 13.0142929,4.62665255 C13.0610448,5.00345904 12.8196756,5.34960802 12.4625006,5.4439674 L12.3623475,5.46329292 C12.249917,5.47724262 11.9851929,5.55856918 11.6145788,5.76292466 C11.103788,6.04457317 10.5848584,6.46774854 10.0781294,7.06188263 L10.1705168,7.21845289 C10.3187208,7.45531687 10.4932433,7.69248931 10.6903225,7.91120447 C11.2608228,8.54433599 11.8794252,8.87608237 12.5307419,8.81511257 C14.2360507,8.65926425 15.0979154,7.55947144 15.8925344,5.07595088 L15.8925344,5.07595088 L15.9360947,4.93859312 L16.4326574,3.32262872 C16.5939948,2.82463263 16.7403746,2.4294397 16.8950539,2.09628977 L16.8950539,2.09628977 L16.918,2.048 Z" id="path-1"></path>
    </defs>
    <g id="Icons/Großgruppen/Regular/alle" stroke="none" stroke-width="1" fill="none" fill-rule="evenodd">
        <mask id="mask-2" fill="white">
            <use xlink:href="#path-1"></use>
        </mask>
        <use id="Mask" fill="#FFFFFF" fill-rule="nonzero" xlink:href="#path-1"></use>
        <g id="Group" mask="url(#mask-2)" fill="#FFFFFF">
            <g id="Rectangle">
                <rect x="0" y="0" width="24" height="24"></rect>
            </g>
        </g>
    </g>
</svg>