<?xml version="1.0" encoding="UTF-8"?>
<svg width="24px" height="24px" viewBox="0 0 24 24" version="1.1" xmlns="http://www.w3.org/2000/svg" xmlns:xlink="http://www.w3.org/1999/xlink">
    <title>Icons/Functional/arrow Copy</title>
    <defs>
        <path d="M12.2288746,0.372470278 C12.6844863,0.828081951 12.7148604,1.54790237 12.3199969,2.03874188 L12.2288746,2.14023723 L4.37710267,9.98935375 L22.7551494,9.99024222 C23.4455053,9.99024222 24.0051494,10.5498863 24.0051494,11.2402422 C24.0051494,11.8874509 23.5132747,12.4197761 22.8829546,12.4837886 L22.7551494,12.4902422 L4.37710267,12.4893538 L12.2288746,20.3402472 C12.6844863,20.7958589 12.7148604,21.5156793 12.3199969,22.0065188 L12.2288746,22.1080142 C11.7732629,22.5636258 11.0534425,22.5939999 10.562603,22.1991365 L10.4611077,22.1080142 L0.47721919,12.1241257 L0.396541899,12.0353583 C0.395228792,12.0337672 0.393919546,12.0321728 0.392614176,12.030575 L0.47721919,12.1241257 C0.429448634,12.0763551 0.386352873,12.02568 0.347931906,11.9726689 C0.337993333,11.9587846 0.328218586,11.9446891 0.318730321,11.930387 C0.306232857,11.9117509 0.294380404,11.8927915 0.283084404,11.8735952 C0.27301257,11.8562941 0.263093819,11.8384778 0.253604687,11.8204007 C0.24198048,11.7983842 0.231264291,11.7763557 0.221233334,11.7540938 C0.215100468,11.7404479 0.209041137,11.7263503 0.203236457,11.7121217 C0.193236064,11.6875235 0.184126957,11.6629151 0.175817963,11.6380976 C0.17040613,11.6221809 0.165291509,11.6058395 0.160507081,11.5893576 C0.154078991,11.5668514 0.148190805,11.5441585 0.142949558,11.521347 C0.138618167,11.5030017 0.134769076,11.4843156 0.131341985,11.4654823 C0.127242186,11.442356 0.12375515,11.4196413 0.120894774,11.3968629 C0.11856188,11.378867 0.11664013,11.3601795 0.115134563,11.3413747 C0.113015217,11.3145346 0.111722792,11.2878906 0.111277859,11.2612351 C0.111161509,11.2543862 0.111102666,11.2473211 0.111102666,11.2402422 L0.111277859,11.2192494 C0.111724412,11.1924968 0.113024642,11.1657557 0.115178547,11.1390707 L0.111102666,11.2402422 C0.111102666,11.1870848 0.114420796,11.1347024 0.120861234,11.0832908 C0.123673923,11.0614503 0.127095841,11.0390671 0.131126179,11.0167722 C0.134545587,10.9972456 0.138519851,10.9778925 0.142935636,10.9587082 C0.148416498,10.9353691 0.154503171,10.912013 0.161275427,10.8888146 C0.165569306,10.8738274 0.17007352,10.8594292 0.174828496,10.8451455 C0.183312283,10.8197751 0.192792074,10.7940524 0.203145284,10.7686018 C0.209041137,10.7541341 0.215100468,10.7400365 0.221408788,10.7260755 C0.231264291,10.7041287 0.24198048,10.6821002 0.2533819,10.6603372 C0.263093819,10.6420066 0.27301257,10.6241904 0.283347372,10.6066486 C0.294380404,10.5876929 0.306232857,10.5687336 0.318641763,10.5500345 C0.328218586,10.5357954 0.337993333,10.5216999 0.348046375,10.5078191 C0.36017859,10.4909183 0.372900239,10.4742583 0.386096855,10.4578541 L0.392614176,10.4499094 C0.419243733,10.4173161 0.447485992,10.3860919 0.47721919,10.3563587 L10.4611077,0.372470278 C10.949263,-0.115685087 11.7407192,-0.115685087 12.2288746,0.372470278 Z" id="path-1"></path>
    </defs>
    <g id="Symbols" stroke="none" stroke-width="1" fill="none" fill-rule="evenodd">
        <g id="Footer" transform="translate(-1612.000000, -84.000000)">
            <g id="Group-Copy" transform="translate(1594.000000, 66.000000)">
                <g id="Icons/Functional/arrow-Copy" transform="translate(30.000000, 30.000000) rotate(-270.000000) translate(-30.000000, -30.000000) translate(18.000000, 18.500000)">
                    <mask id="mask-2" fill="white">
                        <use xlink:href="#path-1"></use>
                    </mask>
                    <use id="Mask" fill="#FFFFFF" fill-rule="nonzero" xlink:href="#path-1"></use>
                </g>
            </g>
        </g>
    </g>
</svg>