<svg xmlns="http://www.w3.org/2000/svg" version="1.1" xmlns:xlink="http://www.w3.org/1999/xlink" xmlns:svgjs="http://svgjs.com/svgjs" viewBox="0 0 16 16" width="16" height="16"><g transform="matrix(0.6666666666666666,0,0,0.6666666666666666,0,0)"><path d="M12,23.5A11.5,11.5,0,1,0,.5,12,11.513,11.513,0,0,0,12,23.5ZM7.05,9.172a1,1,0,0,1,0-1.415l.707-.707a1,1,0,0,1,1.415,0L11.823,9.7a.25.25,0,0,0,.354,0L14.828,7.05a1,1,0,0,1,1.415,0l.707.707a1,1,0,0,1,0,1.415L14.3,11.823a.25.25,0,0,0,0,.354l2.652,2.651a1,1,0,0,1,0,1.415l-.707.707a1,1,0,0,1-1.415,0L12.177,14.3a.252.252,0,0,0-.354,0L9.172,16.95a1,1,0,0,1-1.415,0l-.707-.707a1,1,0,0,1,0-1.415L9.7,12.177a.25.25,0,0,0,0-.354Z" stroke="none" stroke-linecap="round" stroke-linejoin="round" stroke-width="0"></path></g></svg>
