<?xml version="1.0" encoding="UTF-8"?>
<svg width="24px" height="24px" viewBox="0 0 24 24" version="1.1" xmlns="http://www.w3.org/2000/svg" xmlns:xlink="http://www.w3.org/1999/xlink">

    <g id="Icons/Global-Navigation/Regular/lang_en" stroke="none" stroke-width="1" fill-rule="evenodd">
        <path d="M13.0556201,0.00448222879 L12.7528771,8.05596758e-06 C8.67069974,-0.0048691202 4.90572426,2.20509244 2.92030334,5.7731501 L2.75524688,6.08089465 C1.04927674,9.38346139 1.09120281,13.3112066 2.84935992,16.5695238 L2.9858771,16.8140161 L0.0757181777,22.9285944 L0.0388297787,23.0197726 C-0.164570744,23.6274567 0.468113172,24.2173736 1.07538411,23.9281345 L7.1888771,21.0160161 L7.39182675,21.1303771 C11.358799,23.2929976 16.265558,22.8769961 19.820321,20.0205816 C23.5443585,17.0281475 24.9723071,12.0100389 23.3816686,7.50526512 C21.824875,3.09634225 17.7089154,0.120324265 13.0556201,0.00448222879 Z M12.7543509,1.50097517 C16.8947227,1.49285814 20.5887015,4.10056171 21.9672539,8.00469587 C23.3458073,11.9088331 22.1082518,16.2578606 18.8807527,18.8513035 C15.6532535,21.4447465 11.1397743,21.716938 7.62399719,19.5301575 L7.52796221,19.4796546 C7.33039875,19.393382 7.1031591,19.3956922 6.90537008,19.4898978 L2.3388771,21.6640161 L4.51303602,17.0984379 C4.62292806,16.8676397 4.60770126,16.5967634 4.47263547,16.379735 C2.60319487,13.3758528 2.51069795,9.59418917 4.2310451,6.50250326 C5.95139041,3.41082068 9.21370173,1.49591244 12.7543509,1.50097517 Z" id="lang_en/path-1"></path>
        <path d="M9.39121203,14.2453536 C9.60721203,14.2453536 9.83021203,14.2293536 10.060212,14.1973536 C10.290212,14.1653536 10.516212,14.1103536 10.738212,14.0323536 C10.960212,13.9543536 11.173212,13.8503536 11.377212,13.7203536 C11.581212,13.5903536 11.765212,13.4293536 11.929212,13.2373536 L11.929212,13.2373536 L11.497212,12.6973536 C11.465212,12.6533536 11.427212,12.6193536 11.383212,12.5953536 C11.339212,12.5713536 11.287212,12.5593536 11.227212,12.5593536 C11.135212,12.5593536 11.040212,12.5873536 10.942212,12.6433536 C10.844212,12.6993536 10.730212,12.7613536 10.600212,12.8293536 C10.470212,12.8973536 10.318212,12.9593536 10.144212,13.0153536 C9.97021203,13.0713536 9.76321203,13.0993536 9.52321203,13.0993536 C9.03521203,13.0993536 8.64321203,12.9513536 8.34721203,12.6553536 C8.05121203,12.3593536 7.88121203,11.8953536 7.83721203,11.2633536 L7.83721203,11.2633536 L11.641212,11.2633536 C11.709212,11.2633536 11.765212,11.2543536 11.809212,11.2363536 C11.853212,11.2183536 11.888212,11.1883536 11.914212,11.1463536 C11.940212,11.1043536 11.958212,11.0463536 11.968212,10.9723536 C11.978212,10.8983536 11.983212,10.8053536 11.983212,10.6933536 C11.983212,10.2493536 11.917212,9.8543536 11.785212,9.5083536 C11.653212,9.1623536 11.469212,8.8703536 11.233212,8.6323536 C10.997212,8.3943536 10.716212,8.2133536 10.390212,8.0893536 C10.064212,7.9653536 9.70721203,7.9033536 9.31921203,7.9033536 C8.85921203,7.9033536 8.44621203,7.9833536 8.08021203,8.1433536 C7.71421203,8.3033536 7.40421203,8.5203536 7.15021203,8.7943536 C6.89621203,9.0683536 6.70121203,9.3903536 6.56521203,9.7603536 C6.42921203,10.1303536 6.36121203,10.5253536 6.36121203,10.9453536 C6.36121203,11.4853536 6.43921203,11.9603536 6.59521203,12.3703536 C6.75121203,12.7803536 6.96521203,13.1243536 7.23721203,13.4023536 C7.50921203,13.6803536 7.82921203,13.8903536 8.19721203,14.0323536 C8.56521203,14.1743536 8.96321203,14.2453536 9.39121203,14.2453536 Z M10.651212,10.3693536 L7.86721203,10.3693536 C7.93521203,9.9213536 8.09121203,9.5753536 8.33521203,9.3313536 C8.57921203,9.0873536 8.91721203,8.9653536 9.34921203,8.9653536 C9.56921203,8.9653536 9.76121203,9.0023536 9.92521203,9.0763536 C10.089212,9.1503536 10.225212,9.2513536 10.333212,9.3793536 C10.441212,9.5073536 10.521212,9.6563536 10.573212,9.8263536 C10.625212,9.9963536 10.651212,10.1773536 10.651212,10.3693536 L10.651212,10.3693536 Z M14.671212,14.1553536 L14.671212,9.7033536 C14.871212,9.5033536 15.083212,9.3453536 15.307212,9.2293536 C15.531212,9.1133536 15.771212,9.0553536 16.027212,9.0553536 C16.375212,9.0553536 16.636212,9.1583536 16.810212,9.3643536 C16.984212,9.5703536 17.071212,9.8613536 17.071212,10.2373536 L17.071212,10.2373536 L17.071212,14.1553536 L18.553212,14.1553536 L18.553212,10.2373536 C18.553212,9.8933536 18.508212,9.5783536 18.418212,9.2923536 C18.328212,9.0063536 18.196212,8.7603536 18.022212,8.5543536 C17.848212,8.3483536 17.631212,8.1883536 17.371212,8.0743536 C17.111212,7.9603536 16.813212,7.9033536 16.477212,7.9033536 C16.269212,7.9033536 16.077212,7.9233536 15.901212,7.9633536 C15.725212,8.0033536 15.560212,8.0613536 15.406212,8.1373536 C15.252212,8.2133536 15.106212,8.3033536 14.968212,8.4073536 C14.830212,8.5113536 14.699212,8.6273536 14.575212,8.7553536 L14.575212,8.7553536 L14.473212,8.2693536 C14.413212,8.0893536 14.287212,7.9993536 14.095212,7.9993536 L14.095212,7.9993536 L13.189212,7.9993536 L13.189212,14.1553536 L14.671212,14.1553536 Z" id="lang_en/en" fill-rule="nonzero"></path>
    </g>
</svg>
