<?xml version="1.0" encoding="UTF-8"?>
<svg xmlns="http://www.w3.org/2000/svg" viewBox="0 0 6.356 6.351" height="24.004" width="24.024">
  <path d="M3.454.001L3.374 0A2.974 2.974 0 00.773 1.527l-.044.082a2.973 2.973 0 00.025 2.775l.036.065-.77 1.618-.01.024a.199.199 0 00.275.24l1.617-.77.054.03A2.977 2.977 0 103.454 0zm-.08.396a2.58 2.58 0 11-1.357 4.77l-.025-.013a.198.198 0 00-.165.003L.62 5.732l.575-1.208a.198.198 0 00-.01-.19A2.576 2.576 0 013.373.397z" fill-rule="evenodd"/>
  <path d="M2.146 3.77a.657.657 0 00.298-.07.671.671 0 00.12-.079.975.975 0 00.106-.103l.032.157c.016.048.049.071.1.071h.24V1.387h-.393v.86a.565.565 0 00-.406-.16.637.637 0 00-.51.243.819.819 0 00-.14.27 1.319 1.319 0 00-.006.692c.029.104.07.191.123.261a.54.54 0 00.436.217zm.133-.31a.33.33 0 01-.138-.029.251.251 0 01-.104-.09.477.477 0 01-.066-.162 1.089 1.089 0 01-.023-.242c0-.094.009-.176.027-.245a.494.494 0 01.077-.172.315.315 0 01.122-.1.429.429 0 01.33 0c.053.021.1.06.145.114v.73a.618.618 0 01-.162.144.4.4 0 01-.208.051zm1.878.31c.058 0 .117-.004.177-.012a.894.894 0 00.349-.127.654.654 0 00.146-.127l-.114-.143a.091.091 0 00-.03-.027.09.09 0 00-.042-.01.148.148 0 00-.075.022 2.853 2.853 0 01-.09.05.768.768 0 01-.121.048.54.54 0 01-.165.023.42.42 0 01-.31-.118c-.08-.078-.124-.201-.136-.368h1.007a.114.114 0 00.044-.007.06.06 0 00.028-.024.118.118 0 00.014-.046.875.875 0 00-.048-.387.62.62 0 00-.37-.375.791.791 0 00-.283-.05.811.811 0 00-.327.064.729.729 0 00-.401.427 1.057 1.057 0 00.008.69c.041.11.098.2.17.274.072.074.156.13.254.167a.87.87 0 00.316.056zm.334-1.025h-.737a.478.478 0 01.124-.275.362.362 0 01.268-.097.37.37 0 01.153.03.3.3 0 01.108.08c.028.034.05.073.063.118.014.045.02.093.02.144z"/>
</svg>
