<svg height="228" width="405" xmlns="http://www.w3.org/2000/svg" viewBox="0 0 405 228">
    <path fill="#fff" fill-rule="evenodd" d="M404.71 112.45c-.06-.51-.08-.63-.1-.78-.51-3.15-1.98-6.08-4.24-8.33-12.9-15.23-28.27-28.78-43.89-41.16-33.63-26.66-72.1-48.99-114.59-57.97-24.54-5.17-49.25-5.4-73.92-1.02-22.45 3.98-44.08 12.29-64.32 22.59C71.96 41.89 43.01 64.11 17.8 89.01c-4.66 4.62-9.32 9.32-13.56 14.33-5.65 6.68-5.65 14.56 0 21.22 12.9 15.23 28.27 28.78 43.89 41.16 33.65 26.66 72.13 48.98 114.59 57.96 24.54 5.19 49.25 5.42 73.92 1.03 22.43-3.99 44.06-12.3 64.33-22.6 31.68-16.11 60.63-38.33 85.85-63.23 4.65-4.61 9.32-9.31 13.55-14.32 2.26-2.25 3.73-5.17 4.24-8.29.08-.59.1-.69.1-.82.05-.42.05-.57.07-.73.02-.26.02-.51.02-.76s0-.51-.02-.76c-.04-.58-.07-.67-.07-.75zM202.4 209.5c52.24 0 94.59-42.32 94.59-94.53s-42.35-94.54-94.59-94.54-94.59 42.33-94.59 94.54c0 52.21 42.35 94.53 94.59 94.53zm0 0"/>
    <path fill="#fff" fill-rule="evenodd" d="M199.77 47.8c-7.02 13.48-11.98 26.63-14.96 39.27l18.98 17.82c1.22 1.16 1.32 3.11.22 4.38-.59.67-1.4 1.02-2.21 1.02-.72 0-1.43-.27-2.01-.8l-16.41-15.42c-.62 3.49-1.13 6.91-1.43 10.3l19.23 17.67c1.24 1.13 1.36 3.08.26 4.37-.59.68-1.42 1.05-2.24 1.05-.7 0-1.4-.26-1.97-.79l-15.71-14.43c-.08 4.2.11 8.31.55 12.34l19.09 17.29c1.23 1.13 1.36 3.07.28 4.36-.59.7-1.42 1.07-2.25 1.07-.7 0-1.39-.26-1.96-.76l-13.58-12.3c2.39 10.82 6.74 20.88 13.14 29.92.57.8 1.45 1.27 2.4 1.27h.2V184c0 1.71 1.33 3.1 2.98 3.1s2.98-1.39 2.98-3.1v-18.57h.2c.95 0 1.84-.47 2.4-1.27 21.44-30.29 20.39-71.6-2.94-116.36-1.04-2-4.2-2-5.24 0zm0 0"/>
</svg>
