<?xml version="1.0" encoding="UTF-8"?>
<svg width="24px" height="24px" viewBox="0 0 24 24" version="1.1" xmlns="http://www.w3.org/2000/svg" xmlns:xlink="http://www.w3.org/1999/xlink">
<path id="menu_bars" d="
    M3,3.05663847 L21,3.05663847 C21.5522847,3.05663847 22,3.50435372 22,4.05663847 L22,6.18434379 C22,6.73662854 21.5522847,7.18434379 21,7.18434379 L3,7.18434379 C2.44771525,7.18434379 2,6.73662854 2,6.18434379 L2,4.05663847 C2,3.50435372 2.44771525,3.05663847 3,3.05663847 Z 
    M3,9.93614734 L16.5263332,9.93614734 C17.0786179,9.93614734 17.5263332,10.3838626 17.5263332,10.9361473 L17.5263332,13.0638527 C17.5263332,13.6161374 17.0786179,14.0638527 16.5263332,14.0638527 L3,14.0638527 C2.44771525,14.0638527 2,13.6161374 2,13.0638527 L2,10.9361473 C2,10.3838626 2.44771525,9.93614734 3,9.93614734 Z 
    M3,16.8156562 L21.3849532,16.8156562 C21.5522847,16.8156562 22,17.2633715 22,17.8156562 L22,19.9433615 C22,20.4956463 21.5522847,20.9433615 21,20.9433615 L3,20.9433615 C2.44771525,20.9433615 2,20.4956463 2,19.9433615 L2,17.8156562 C2,17.2633715 2.44771525,16.8156562 3,16.8156562 Z
    ">
</path>
</svg>
