<?xml version="1.0" encoding="UTF-8"?>
<svg width="24px" height="24px" viewBox="0 0 24 24" version="1.1" xmlns="http://www.w3.org/2000/svg" xmlns:xlink="http://www.w3.org/1999/xlink">
    <title>Icons/Functional/pause-media</title>
    <defs>
        <path d="M12,0 C18.627417,0 24,5.372583 24,12 C24,18.627417 18.627417,24 12,24 C5.372583,24 0,18.627417 0,12 C0,5.372583 5.372583,0 12,0 Z M12,1.5 C6.20101013,1.5 1.5,6.20101013 1.5,12 C1.5,17.7989899 6.20101013,22.5 12,22.5 C17.7989899,22.5 22.5,17.7989899 22.5,12 C22.5,6.20101013 17.7989899,1.5 12,1.5 Z M9.18335657,7.37097985 C10.2879261,7.37097985 11.1833566,8.0562617 11.1833566,8.90159971 L11.1833566,15.4084002 C11.1833566,16.2537382 10.2879261,16.9390201 9.18335657,16.9390201 C8.07878707,16.9390201 7.18335657,16.2537382 7.18335657,15.4084002 L7.18335657,8.90159971 C7.18335657,8.0562617 8.07878707,7.37097985 9.18335657,7.37097985 Z M14.7039492,7.37097985 C15.8085187,7.37097985 16.7039492,8.0562617 16.7039492,8.90159971 L16.7039492,15.4084002 C16.7039492,16.2537382 15.8085187,16.9390201 14.7039492,16.9390201 C13.5993797,16.9390201 12.7039492,16.2537382 12.7039492,15.4084002 L12.7039492,8.90159971 C12.7039492,8.0562617 13.5993797,7.37097985 14.7039492,7.37097985 Z" id="path-pause-media"></path>
    </defs>
    <g id="Icons/Functional/pause-media" stroke="none" stroke-width="1" fill-rule="evenodd">
        <mask id="mask-pause-media">
            <use xlink:href="#path-pause-media"></use>
        </mask>
        <use fill-rule="nonzero" xlink:href="#path-pause-media"></use>
        <g mask="url(#mask-pause-media)">
            <g>
                <rect x="0" y="0" width="43.105028" height="43.105028"></rect>
            </g>
        </g>
    </g>
</svg>
