<?xml version="1.0" encoding="UTF-8"?>
<svg width="13px" height="13px" viewBox="0 0 13 13" version="1.1" xmlns="http://www.w3.org/2000/svg" xmlns:xlink="http://www.w3.org/1999/xlink">
    <title>Group</title>
    <g id="pinwithstar/Views-/-Artportraits" stroke="none" stroke-width="1">
        <g id="pinwithstar/Group" transform="translate(-524.000000, -1121.000000)">
            <g transform="translate(524.850000, 1121.100000)">
                <path d="M5.225,0 C2.37073912,0.00328342108 0.0577262901,2.30522921 0.0544270833,5.14583333 C0.0544270833,8.692125 3.61286979,11.9101667 4.70304427,12.8120417 C5.0054642,13.0620677 5.44399153,13.0620677 5.74641146,12.8120417 C6.83495313,11.9101667 10.3955729,8.69104167 10.3955729,5.14529167 C10.3919739,2.30489908 8.07904869,0.00328281608 5.225,0 Z M7.60128646,4.13129167 C7.74298192,4.12446571 7.8735203,4.2075598 7.92671306,4.33844169 C7.97990582,4.46932358 7.94411978,4.6193696 7.8375,4.7125 L6.79195573,5.73841667 C6.71161002,5.81701765 6.68823822,5.93676344 6.73317448,6.03958333 L7.31227865,7.3645 C7.37148472,7.50482542 7.33401268,7.66710509 7.2191919,7.76762955 C7.10437112,7.86815402 6.93786474,7.88445544 6.8055625,7.808125 L5.36052344,6.995625 C5.27757806,6.94909929 5.17623183,6.94909929 5.09328646,6.995625 L3.64661458,7.8065 C3.51431234,7.88283044 3.34780596,7.86652902 3.23298519,7.76600455 C3.11816441,7.66548009 3.08069237,7.50320042 3.13989844,7.362875 L3.71845833,6.03795833 C3.76353153,5.93524757 3.74037918,5.81551753 3.66022135,5.73679167 L2.6125,4.7125 C2.50769243,4.61941295 2.47269904,4.47096322 2.52497534,4.34120099 C2.57725163,4.21143875 2.70559795,4.12816422 2.84599219,4.13291667 L4.03195833,4.13291667 C4.13792397,4.1330647 4.23433985,4.07198349 4.27905729,3.976375 L4.90496875,2.63304167 C4.9667528,2.51368289 5.09036068,2.43867515 5.22527214,2.43867515 C5.36018359,2.43867515 5.48379147,2.51368289 5.54557552,2.63304167 L6.16985417,3.976375 C6.2145716,4.07198349 6.31098749,4.1330647 6.41695313,4.13291667 L7.60128646,4.13129167 Z" id="pinwithstar/Shape"></path>
            </g>
        </g>
    </g>
</svg>
