<?xml version="1.0" encoding="UTF-8"?>
<svg width="24px" height="24px" viewBox="0 0 24 24" version="1.1" xmlns="http://www.w3.org/2000/svg" xmlns:xlink="http://www.w3.org/1999/xlink">
    <title>Icons/Functional/play-media</title>
    <defs>
        <path d="M12,0 C18.627417,0 24,5.372583 24,12 C24,18.627417 18.627417,24 12,24 C5.372583,24 0,18.627417 0,12 C0,5.372583 5.372583,0 12,0 Z M12,1.5 C6.20101013,1.5 1.5,6.20101013 1.5,12 C1.5,17.7989899 6.20101013,22.5 12,22.5 C17.7989899,22.5 22.5,17.7989899 22.5,12 C22.5,6.20101013 17.7989899,1.5 12,1.5 Z M9.1958166,7.78133204 C9.65949524,7.49507719 10.2425567,7.48517179 10.7156911,7.75551149 L10.7156911,7.75551149 L16.6416911,10.7185115 C17.1647325,10.9285775 17.5105247,11.4386488 17.5105247,12.0060115 C17.5105247,12.5733742 17.1647325,13.0834455 16.6376911,13.2935115 L16.6376911,13.2935115 L10.7116911,16.2565115 C10.4760166,16.377293 10.2154976,16.4416525 9.9506911,16.4445162 C9.6827071,16.445193 9.41984956,16.3710803 9.1916911,16.2305115 C8.73635506,15.9366193 8.47017282,15.4240283 8.4916911,14.8825115 L8.4916911,14.8825115 L8.4916911,9.12851149 C8.462018,8.58439824 8.73213795,8.06758689 9.1958166,7.78133204 Z" id="path-1"></path>
    </defs>
    <g id="Icons/Functional/play-media" stroke="none" stroke-width="1" fill="none" fill-rule="evenodd">
        <mask id="mask-2" fill="white">
            <use xlink:href="#path-1"></use>
        </mask>
        <use id="Mask" fill="#FFFFFF" fill-rule="nonzero" xlink:href="#path-1"></use>
        <g id="Group" mask="url(#mask-2)" fill="#FFFFFF">
            <g id="Color/1">
                <rect id="Rectangle" x="0" y="0" width="43.105028" height="43.105028"></rect>
            </g>
        </g>
    </g>
</svg>