<?xml version="1.0" encoding="UTF-8"?>
<svg width="24px" height="24px" viewBox="0 0 24 24" version="1.1" xmlns="http://www.w3.org/2000/svg" xmlns:xlink="http://www.w3.org/1999/xlink">
    <title>Icons/Functional/sound-speaker</title>
    <defs>
        <path d="M12,0 C18.627417,0 24,5.372583 24,12 C24,18.627417 18.627417,24 12,24 C5.372583,24 0,18.627417 0,12 C0,5.372583 5.372583,0 12,0 Z M12,1.5 C6.20101013,1.5 1.5,6.20101013 1.5,12 C1.5,17.7989899 6.20101013,22.5 12,22.5 C17.7989899,22.5 22.5,17.7989899 22.5,12 C22.5,6.20101013 17.7989899,1.5 12,1.5 Z M12.569896,6.26046155 C13.1215805,5.84644009 13.8598539,5.77970882 14.4775151,6.08843656 C15.0939427,6.3973281 15.4830094,7.02791674 15.4825739,7.71693259 L15.4825739,7.71693259 L15.4825739,16.2829903 C15.4825739,16.9726422 15.0929269,17.6031033 14.4760834,17.911525 C13.85924,18.2199468 13.1210833,18.1533872 12.6167051,17.7723422 L12.6167051,17.7723422 L8.089,14.891 L6.16651558,14.8914759 C5.21121796,14.8914759 4.42775243,14.1557752 4.35179412,13.2200491 L4.35179412,13.2200491 L4.34575837,13.0707187 L4.34575837,10.9292042 C4.34575837,9.92362779 5.16093914,9.10844702 6.16651558,9.10844702 L6.16651558,9.10844702 L8.089,9.108 Z M13.8061949,7.42982708 C13.6975031,7.37549936 13.5674437,7.38725521 13.4226888,7.49310057 L13.4226888,7.49310057 L9.058,10.27 L9.058,13.73 L13.4693617,16.5395961 C13.5471178,16.5979131 13.6458939,16.6170809 13.7379317,16.5945965 L13.805263,16.5698843 C13.9139306,16.5155505 13.9825737,16.404484 13.9825737,16.2829903 L13.9825737,16.2829903 L13.9825737,7.71645823 C13.9825737,7.5949926 13.9141097,7.48390356 13.8061949,7.42982708 Z M18.4075823,9.60871555 C19.1945637,10.2257027 19.6542477,11.1702054 19.6542477,12.1702118 C19.6542477,13.1702183 19.1945637,14.114721 18.4075823,14.7317081 C18.081606,14.9872709 17.6101754,14.9301895 17.3546126,14.6042132 C17.0990499,14.278237 17.1561313,13.8068064 17.4821075,13.5512436 C17.9064089,13.2185947 18.1542477,12.7093657 18.1542477,12.1702118 C18.1542477,11.631058 17.9064089,11.1218289 17.4821075,10.7891801 C17.1561313,10.5336173 17.0990499,10.0621867 17.3546126,9.73621043 C17.6101754,9.41023416 18.081606,9.35315275 18.4075823,9.60871555 Z M7.558,13.391 L7.558,10.608 L6.16651558,10.608447 C6.01150993,10.608447 5.88218442,10.7183968 5.85227501,10.8645605 L5.84575837,10.9292042 L5.84575837,13.0707187 C5.84575837,13.247868 5.98936626,13.3914759 6.16651558,13.3914759 L6.16651558,13.3914759 L7.558,13.391 Z" id="path-sound-speaker"></path>
    </defs>
    <g id="Icons/Functional/sound-speaker" stroke="none" stroke-width="1" fill-rule="evenodd">
        <mask id="mask-sound-speaker" >
            <use xlink:href="#path-sound-speaker"></use>
        </mask>
        <use id="Mask" fill-rule="nonzero" xlink:href="#path-sound-speaker"></use>
        <g mask="url(#mask-sound-speaker)">
            <g >
                <rect x="0" y="0" width="43.105028" height="43.105028"></rect>
            </g>
        </g>
    </g>
</svg>
