<svg xmlns="http://www.w3.org/2000/svg" version="1.1" xmlns:xlink="http://www.w3.org/1999/xlink" xmlns:svgjs="http://svgjs.com/svgjs" viewBox="0 0 16 16" width="16" height="16"><g transform="matrix(1.6,0,0,1.6,0,0)"><path d="M9.692,4.589A1.509,1.509,0,0,0,8.5,4H6.25A.25.25,0,0,1,6,3.75V1A1,1,0,0,0,4.246.345L1.263,4H.5a.5.5,0,0,0-.5.5v5a.5.5,0,0,0,.5.5H7.546A1.5,1.5,0,0,0,8.987,8.915L9.948,5.9A1.512,1.512,0,0,0,9.692,4.589Z" stroke="none" stroke-linecap="round" stroke-linejoin="round" stroke-width="0"></path></g></svg>
