<svg xmlns="http://www.w3.org/2000/svg" version="1.1" xmlns:xlink="http://www.w3.org/1999/xlink" xmlns:svgjs="http://svgjs.com/svgjs" viewBox="0 0 16 16" width="16" height="16"><g transform="matrix(1.6,0,0,1.6,0,0)"><path d="M5,10a5,5,0,1,1,5-5A5.006,5.006,0,0,1,5,10ZM5,1.5A3.5,3.5,0,1,0,8.5,5,3.5,3.5,0,0,0,5,1.5Z" stroke="none" stroke-linecap="round" stroke-linejoin="round" stroke-width="0"></path><path d="M6.5,6.625a.624.624,0,0,1-.347-.105l-1.5-1A.624.624,0,0,1,4.375,5V3.5a.625.625,0,0,1,1.25,0V4.666l1.222.814A.625.625,0,0,1,6.5,6.625Z" stroke="none" stroke-linecap="round" stroke-linejoin="round" stroke-width="0"></path></g></svg>
